<svg width="80" height="81" viewBox="0 0 80 81" fill="none" xmlns="http://www.w3.org/2000/svg">
<path fill-rule="evenodd" clip-rule="evenodd" d="M69.0113 18.8363C69.456 19.7535 69.8312 20.8375 70.0327 22.2689C71.4572 21.1293 72.5204 19.6631 72.6871 18.8918C73.0068 17.516 72.7358 16.3903 72.3536 15.5148C74.7023 12.1655 76.1545 7.64188 73.8059 3.56299C69.1572 4.27871 66.5306 8.23947 65.3842 12.1724C64.4669 12.4226 63.4177 12.909 62.5422 14.0208C62.0488 14.6392 61.5763 16.3903 61.5693 18.2109C62.8201 17.4674 63.8902 17.0852 64.8908 16.8628C64.8878 16.8978 64.8841 16.9357 64.8803 16.976C64.8311 17.4885 64.7443 18.3936 65.3564 18.6834L67.3019 19.6145C67.9155 19.9052 68.5652 19.2712 68.9327 18.9126C68.9605 18.8854 68.9869 18.8598 69.0113 18.8363ZM72.3953 10.5186C72.8122 9.65701 72.4509 8.62165 71.5892 8.21168C70.7276 7.79475 69.6992 8.16303 69.2823 9.01773C68.8653 9.87937 69.2267 10.9147 70.0883 11.3247C70.95 11.7416 71.9853 11.3803 72.3953 10.5186Z" fill="black"/>
<path d="M51.9738 52.8215C56.949 46.9638 63.6129 36.7283 68.1711 28.6122C71.7705 22.2125 62.7235 16.313 58.3666 22.2125C58.3458 22.2402 58.3267 22.2663 58.3076 22.2922C58.2885 22.3184 58.2694 22.3444 58.2485 22.3723C57.4527 23.4769 56.8442 24.7153 56.2375 25.9506C55.9701 26.4949 55.7031 27.0386 55.4204 27.5699C52.8182 32.449 52.2171 33.6399 49.4799 39.063C48.884 40.2435 48.1869 41.6246 47.346 43.2879C46.5747 44.8097 44.3928 49.0345 41.7523 53.3427C41.6582 53.4953 41.5592 53.6589 41.4545 53.8318C41.025 54.5406 40.5005 55.4062 39.8414 56.3167C38.1875 58.6168 35.7138 61.2086 31.9198 62.2579C31.343 62.4108 30.7734 62.515 30.2036 62.5706C24.2555 63.1682 19.0231 59.7147 17.4665 52.2378C17.0079 50.0282 16.994 47.2417 17.6681 44.0731C16.6535 46.8665 16.4313 48.5759 16.313 50.9801C16.313 57.1019 19.3845 61.4935 23.4425 64.4679C26.6042 66.4552 29.5294 67.1293 33.3095 66.6985C40.9767 65.8174 46.1897 59.6565 51.2268 53.7033C51.4762 53.4086 51.7251 53.1145 51.9738 52.8215Z" fill="black"/>
<path d="M5.6339 11.4563L28.8148 59.465C31.5734 59.1453 35.9025 57.6097 38.1052 52.6205L15.3621 6.33515C14.4171 4.59797 12.6035 3.50702 10.6231 3.50007C10.5675 3.50007 10.5188 3.50007 10.4633 3.50007C6.36352 3.47923 3.72301 7.83607 5.6339 11.4563Z" fill="#0093ED"/>
<path d="M56.4262 51.8983C50.2488 59.4307 44.0644 68.0955 33.8081 69.3879C34.8504 71.4309 35.8788 73.446 36.9211 75.4889C38.5332 78.6575 43.0638 78.6506 44.6689 75.482C48.7131 67.5326 52.4584 59.7156 56.4262 51.8983Z" fill="#0093ED"/>
</svg>
